<?xml version="1.0" standalone="no"?>
<!DOCTYPE svg PUBLIC "-//W3C//DTD SVG 20010904//EN"
 "http://www.w3.org/TR/2001/REC-SVG-20010904/DTD/svg10.dtd">
<svg version="1.0" xmlns="http://www.w3.org/2000/svg"
 width="1280.000000pt" height="1280.000000pt" viewBox="0 0 1280.000000 1280.000000"
 preserveAspectRatio="xMidYMid meet">
<metadata>
Created by potrace 1.16, written by Peter Selinger 2001-2019
</metadata>
<g transform="translate(0.000000,1280.000000) scale(0.100000,-0.100000)"
fill="#000000" stroke="none">
<path d="M0 6400 l0 -6400 6400 0 6400 0 0 6400 0 6400 -6400 0 -6400 0 0
-6400z m9642 2231 l97 -6 -58 -95 c-31 -52 -167 -273 -301 -490 -134 -217
-287 -467 -340 -555 -194 -320 -332 -540 -349 -552 -9 -7 -12 -13 -8 -13 5 0
0 -15 -10 -32 -88 -150 -106 -178 -115 -178 -5 0 -7 -4 -4 -9 3 -5 -1 -12 -10
-15 -8 -3 -12 -11 -8 -17 4 -7 3 -9 -3 -6 -12 8 -27 -20 -24 -42 2 -13 1 -13
-15 0 -10 7 -15 9 -11 3 8 -13 -35 -35 -50 -26 -6 4 -13 23 -16 42 -14 80 -21
105 -33 118 -8 8 -14 35 -14 64 0 41 -5 55 -25 74 -14 13 -25 28 -25 34 0 5
-9 10 -20 10 -11 0 -20 5 -20 10 0 6 -9 10 -20 10 -11 0 -20 5 -20 11 0 11
-54 69 -65 69 -3 0 -41 36 -84 79 -65 65 -84 80 -112 81 -52 3 -59 1 -59 -15
0 -11 -12 -15 -45 -15 -32 0 -47 -5 -52 -16 -4 -12 -8 -13 -13 -3 -5 7 -15 9
-26 4 -11 -5 -23 -7 -28 -6 -5 1 -6 -5 -3 -14 4 -9 1 -15 -8 -15 -16 0 -18 9
-9 34 3 9 11 13 17 9 6 -3 7 -1 3 5 -9 15 102 194 116 186 7 -5 8 -2 4 5 -5 7
0 19 10 27 11 9 13 12 6 9 -18 -9 -20 -13 118 215 62 102 173 286 248 410 74
124 151 245 171 270 156 197 376 321 601 339 116 10 480 11 612 2z m-3673 -17
c52 -15 131 -51 141 -64 3 -4 15 -12 27 -19 14 -7 20 -17 17 -26 -4 -8 -10
-12 -15 -9 -5 3 -6 10 -3 16 4 7 2 8 -5 4 -9 -6 -9 -11 -1 -22 7 -7 15 -13 18
-12 18 3 42 -16 42 -33 0 -10 5 -18 12 -16 7 1 12 -5 13 -13 0 -8 8 -16 19
-18 11 -3 16 0 11 7 -3 6 -11 8 -17 5 -7 -4 -8 -2 -4 5 6 9 11 9 21 1 31 -26
102 -207 92 -234 -3 -8 0 -19 6 -26 9 -10 9 -11 -3 -4 -8 5 -24 7 -35 5 l-20
-3 20 23 c11 12 15 19 9 16 -15 -9 -26 20 -19 47 5 17 4 18 -4 6 -6 -8 -11
-11 -11 -5 0 5 -5 4 -12 -3 -7 -7 -15 -12 -18 -12 -15 0 -90 83 -84 92 4 7 2
8 -4 4 -7 -4 -12 -1 -12 8 0 9 -7 16 -15 16 -9 0 -20 11 -25 25 -6 17 -17 25
-33 25 -17 0 -27 10 -42 43 -15 35 -23 43 -41 39 -18 -3 -23 2 -28 32 -4 20
-4 41 -1 46 4 6 -8 13 -25 16 -17 4 -33 11 -37 17 -4 6 0 8 9 5 8 -4 15 0 15
8 0 7 -3 12 -6 10 -3 -2 -15 0 -26 5 -38 15 17 10 74 -7z"/>
</g>
</svg>
